<svg width="20" height="20" viewBox="0 0 20 20" fill="none" xmlns="http://www.w3.org/2000/svg">
<path d="M7.31885 19.2965H5.05518C2.59972 19.2965 0.602051 17.2988 0.602051 14.8434V8.75745C0.602051 6.30199 2.59972 4.30432 5.05518 4.30432H15.1489C17.6044 4.30432 19.6021 6.30199 19.6021 8.75745V10.984C19.6021 11.3939 19.2698 11.7262 18.8599 11.7262C18.45 11.7262 18.1177 11.3939 18.1177 10.984V8.75745C18.1177 7.12048 16.7859 5.7887 15.1489 5.7887H5.05518C3.41821 5.7887 2.08643 7.12048 2.08643 8.75745V14.8434C2.08643 16.4804 3.41821 17.8121 5.05518 17.8121H7.31885C7.72876 17.8121 8.06104 18.1444 8.06104 18.5543C8.06104 18.9642 7.72876 19.2965 7.31885 19.2965ZM19.6021 17.0328V15.0726C19.6021 13.8208 18.5837 12.8024 17.3318 12.8024H15.3716C14.9617 12.8024 14.6294 13.1346 14.6294 13.5446C14.6294 13.9545 14.9617 14.2867 15.3716 14.2867H17.3318C17.7651 14.2867 18.1177 14.6393 18.1177 15.0726V17.0328C18.1177 17.4427 18.45 17.775 18.8599 17.775C19.2698 17.775 19.6021 17.4427 19.6021 17.0328ZM17.0213 16.5802C17.3043 16.2838 17.2935 15.814 16.9971 15.5309C16.7007 15.2478 16.2308 15.2586 15.9477 15.5551C14.578 16.9895 12.6548 17.8121 10.6715 17.8121H10.3247C9.9148 17.8121 9.58252 18.1444 9.58252 18.5543C9.58252 18.9642 9.9148 19.2965 10.3247 19.2965H10.6715C13.0584 19.2965 15.3728 18.3065 17.0213 16.5802ZM5.46338 7.7926C4.95101 7.7926 4.53564 8.20797 4.53564 8.72034C4.53564 9.23271 4.95101 9.64807 5.46338 9.64807C5.97575 9.64807 6.39111 9.23271 6.39111 8.72034C6.39111 8.20797 5.97575 7.7926 5.46338 7.7926ZM8.65479 7.7926C8.14242 7.7926 7.72705 8.20797 7.72705 8.72034C7.72705 9.23271 8.14242 9.64807 8.65479 9.64807C9.16715 9.64807 9.58252 9.23271 9.58252 8.72034C9.58252 8.20797 9.16715 7.7926 8.65479 7.7926ZM11.8462 7.7926C11.3338 7.7926 10.9185 8.20797 10.9185 8.72034C10.9185 9.23271 11.3338 9.64807 11.8462 9.64807C12.3586 9.64807 12.7739 9.23271 12.7739 8.72034C12.7739 8.20797 12.3586 7.7926 11.8462 7.7926ZM5.46338 10.984C4.95101 10.984 4.53564 11.3994 4.53564 11.9117C4.53564 12.4241 4.95101 12.8395 5.46338 12.8395C5.97575 12.8395 6.39111 12.4241 6.39111 11.9117C6.39111 11.3994 5.97575 10.984 5.46338 10.984ZM5.46338 14.1754C4.95101 14.1754 4.53564 14.5908 4.53564 15.1031C4.53564 15.6155 4.95101 16.0309 5.46338 16.0309C5.97575 16.0309 6.39111 15.6155 6.39111 15.1031C6.39111 14.5908 5.97575 14.1754 5.46338 14.1754ZM8.65479 10.984C8.14242 10.984 7.72705 11.3994 7.72705 11.9117C7.72705 12.4241 8.14242 12.8395 8.65479 12.8395C9.16715 12.8395 9.58252 12.4241 9.58252 11.9117C9.58252 11.3994 9.16715 10.984 8.65479 10.984ZM8.65479 14.1754C8.14242 14.1754 7.72705 14.5908 7.72705 15.1031C7.72705 15.6155 8.14242 16.0309 8.65479 16.0309C9.16715 16.0309 9.58252 15.6155 9.58252 15.1031C9.58252 14.5908 9.16715 14.1754 8.65479 14.1754ZM11.8462 10.984C11.3338 10.984 10.9185 11.3994 10.9185 11.9117C10.9185 12.4241 11.3338 12.8395 11.8462 12.8395C12.3586 12.8395 12.7739 12.4241 12.7739 11.9117C12.7739 11.3994 12.3586 10.984 11.8462 10.984Z" fill="#100DB1"/>
<path d="M7.35596 3.26526C6.94605 3.26526 6.61377 2.93298 6.61377 2.52307C6.61377 2.11383 6.28082 1.78088 5.87158 1.78088C5.46234 1.78088 5.12939 2.11383 5.12939 2.52307C5.12939 2.93298 4.79712 3.26526 4.38721 3.26526C3.9773 3.26526 3.64502 2.93298 3.64502 2.52307C3.64502 1.29534 4.64386 0.296509 5.87158 0.296509C7.09931 0.296509 8.09814 1.29534 8.09814 2.52307C8.09814 2.93298 7.76587 3.26526 7.35596 3.26526ZM16.6333 2.52307C16.6333 1.29534 15.6345 0.296509 14.4067 0.296509C13.179 0.296509 12.1802 1.29534 12.1802 2.52307C12.1802 2.93298 12.5125 3.26526 12.9224 3.26526C13.3323 3.26526 13.6646 2.93298 13.6646 2.52307C13.6646 2.11383 13.9975 1.78088 14.4067 1.78088C14.816 1.78088 15.1489 2.11383 15.1489 2.52307C15.1489 2.93298 15.4812 3.26526 15.8911 3.26526C16.301 3.26526 16.6333 2.93298 16.6333 2.52307ZM15.0376 7.7926C14.5252 7.7926 14.1099 8.20797 14.1099 8.72034C14.1099 9.23271 14.5252 9.64807 15.0376 9.64807C15.55 9.64807 15.9653 9.23271 15.9653 8.72034C15.9653 8.20797 15.55 7.7926 15.0376 7.7926Z" fill="#F80D38"/>
</svg>
