<svg width="16" height="15" viewBox="0 0 16 15" fill="none" xmlns="http://www.w3.org/2000/svg">
<path d="M11.9216 14.3331H3.95288C2.01437 14.3331 0.437256 12.8612 0.437256 11.0519V6.43079C0.437256 4.6215 2.01437 3.14954 3.95288 3.14954H6.29663C6.62024 3.14954 6.88257 3.39437 6.88257 3.69641C6.88257 3.99845 6.62024 4.24329 6.29663 4.24329H3.95288C2.66054 4.24329 1.60913 5.2246 1.60913 6.43079V11.0519C1.60913 12.2581 2.66054 13.2394 3.95288 13.2394H11.9216C13.214 13.2394 14.2654 12.2581 14.2654 11.0519V7.90735C14.2654 7.60531 14.5277 7.36047 14.8513 7.36047C15.1749 7.36047 15.4373 7.60531 15.4373 7.90735V11.0519C15.4373 12.8612 13.8601 14.3331 11.9216 14.3331ZM15.4373 3.77844C15.4373 1.87868 13.7813 0.33313 11.7458 0.33313C9.71039 0.33313 8.05444 1.87868 8.05444 3.77844C8.05444 5.6782 9.71039 7.22375 11.7458 7.22375C13.7813 7.22375 15.4373 5.6782 15.4373 3.77844ZM14.2654 3.77844C14.2654 5.07508 13.1351 6.13 11.7458 6.13C10.3566 6.13 9.22632 5.07508 9.22632 3.77844C9.22632 2.4818 10.3566 1.42688 11.7458 1.42688C13.1351 1.42688 14.2654 2.4818 14.2654 3.77844Z" fill="#100DB1"/>
<path d="M7.93708 10.5029C7.18488 10.5029 6.4328 10.2795 5.80524 9.83276L3.01231 7.85047C2.75473 7.66765 2.70469 7.32454 2.90057 7.08414C3.09648 6.8437 3.46406 6.797 3.72164 6.97985L6.51525 8.9626C7.35278 9.55883 8.52179 9.5588 9.35865 8.96309L10.3352 8.26594C10.5923 8.08246 10.96 8.12818 11.1566 8.36806C11.3532 8.60795 11.3042 8.9512 11.0472 9.13467L10.07 9.83227C9.44192 10.2794 8.68945 10.5029 7.93708 10.5029ZM12.3318 4.6261V2.93079C12.3318 2.62875 12.0695 2.38391 11.7459 2.38391H11.1599C10.8363 2.38391 10.574 2.62875 10.574 2.93079C10.574 3.23283 10.8363 3.47766 11.1599 3.47766V4.6261C11.1599 4.92814 11.4223 5.17297 11.7459 5.17297C12.0695 5.17297 12.3318 4.92814 12.3318 4.6261Z" fill="#F80D38"/>
</svg>
