<svg width="20" height="21" viewBox="0 0 20 21" fill="none" xmlns="http://www.w3.org/2000/svg">
<path d="M9.73877 14.5932C11.99 14.5932 13.832 12.7513 13.832 10.5C13.832 8.24879 11.99 6.40686 9.73877 6.40686" fill="#343434"/>
<path d="M9.73869 14.5932C11.9993 14.5932 13.8319 12.7606 13.8319 10.5C13.8319 8.23944 11.9993 6.40686 9.73869 6.40686C7.47809 6.40686 5.64551 8.23944 5.64551 10.5C5.64551 12.7606 7.47809 14.5932 9.73869 14.5932Z" stroke="#343434" stroke-width="1.5" stroke-linecap="round" stroke-linejoin="round"/>
<path d="M16.561 10.5H18.6076" stroke="#343434" stroke-width="1.5" stroke-linecap="round" stroke-linejoin="round"/>
<path d="M0.870117 10.5H2.91671" stroke="#343434" stroke-width="1.5" stroke-linecap="round" stroke-linejoin="round"/>
<path d="M9.73877 17.322V19.3686" stroke="#343434" stroke-width="1.5" stroke-linecap="round" stroke-linejoin="round"/>
<path d="M9.73877 1.63147V3.67806" stroke="#343434" stroke-width="1.5" stroke-linecap="round" stroke-linejoin="round"/>
<path d="M16.0151 4.22388L14.5825 5.65639" stroke="#343434" stroke-width="1.5" stroke-linecap="round" stroke-linejoin="round"/>
<path d="M15.9468 16.7081L14.5142 15.2754" stroke="#343434" stroke-width="1.5" stroke-linecap="round" stroke-linejoin="round"/>
<path d="M5.03173 5.79291L3.59912 4.36023" stroke="#343434" stroke-width="1.5" stroke-linecap="round" stroke-linejoin="round"/>
<path d="M4.89501 15.3437L3.4624 16.7762" stroke="#343434" stroke-width="1.5" stroke-linecap="round" stroke-linejoin="round"/>
</svg>
