<svg width="14" height="18" viewBox="0 0 14 18" fill="none" xmlns="http://www.w3.org/2000/svg">
<path d="M13.2994 17.5995C12.9336 17.5995 12.637 17.3029 12.637 16.9371C12.637 14.3438 10.5273 12.2341 7.93401 12.2341H6.94042C4.34716 12.2341 2.23739 14.3438 2.23739 16.9371C2.23739 17.3029 1.94084 17.5995 1.575 17.5995C1.20915 17.5995 0.912598 17.3029 0.912598 16.9371C0.912598 13.6133 3.61667 10.9093 6.94042 10.9093H7.93401C11.2578 10.9093 13.9618 13.6133 13.9618 16.9371C13.9618 17.3029 13.6653 17.5995 13.2994 17.5995ZM11.8422 5.11328C11.8422 2.64786 9.83639 0.64209 7.37098 0.64209C4.90556 0.64209 2.89979 2.64786 2.89979 5.11328C2.89979 7.57869 4.90556 9.58446 7.37098 9.58446C9.83639 9.58446 11.8422 7.57869 11.8422 5.11328ZM10.5174 5.11328C10.5174 6.84819 9.1059 8.25966 7.37098 8.25966C5.63606 8.25966 4.22459 6.84819 4.22459 5.11328C4.22459 3.37836 5.63606 1.96689 7.37098 1.96689C9.1059 1.96689 10.5174 3.37836 10.5174 5.11328Z" fill="#100DB1"/>
<path d="M7.40419 17.5995C7.28933 17.5995 7.1745 17.5696 7.07176 17.51L4.38905 15.9534C4.23475 15.8638 4.1231 15.7159 4.07932 15.5429C4.03556 15.37 4.06342 15.1867 4.15655 15.0346L5.15015 13.4117C5.34115 13.0997 5.74895 13.0016 6.06094 13.1926C6.37293 13.3837 6.471 13.7914 6.27997 14.1034L5.64052 15.1479L7.40816 16.1736L9.22144 15.1468L8.56663 14.1117C8.37106 13.8026 8.4631 13.3934 8.77227 13.1978C9.08138 13.0022 9.49061 13.0943 9.68618 13.4034L10.7129 15.0263C10.8098 15.1795 10.8397 15.3658 10.7956 15.5416C10.7515 15.7175 10.6373 15.8675 10.4795 15.9569L7.73055 17.5135C7.6293 17.5708 7.5167 17.5995 7.40419 17.5995Z" fill="#F80D38"/>
</svg>
