<svg width="18" height="15" viewBox="0 0 18 15" fill="none" xmlns="http://www.w3.org/2000/svg">
<path d="M13.9529 11.9958H4.92093C2.72434 11.9958 0.937256 10.4389 0.937256 8.5253V3.78089C0.937256 1.86694 2.72464 0.309814 4.92162 0.309814H11.4958C11.8626 0.309814 12.1599 0.568814 12.1599 0.888327C12.1599 1.20784 11.8626 1.46684 11.4958 1.46684H4.92162C3.45697 1.46684 2.26538 2.50492 2.26538 3.78089V8.5253C2.26538 9.80092 3.45667 10.8387 4.92093 10.8387H13.9529C15.4175 10.8387 16.6091 9.80066 16.6091 8.52469V5.92138C16.6091 5.60187 16.9064 5.34287 17.2732 5.34287C17.6399 5.34287 17.9372 5.60187 17.9372 5.92138V8.52469C17.9372 10.4386 16.1498 11.9958 13.9529 11.9958ZM13.2888 13.7313C13.2888 13.4118 12.9915 13.1528 12.6247 13.1528H6.24975C5.88299 13.1528 5.58569 13.4118 5.58569 13.7313C5.58569 14.0508 5.88299 14.3098 6.24975 14.3098H12.6247C12.9915 14.3098 13.2888 14.0508 13.2888 13.7313Z" fill="#100DB1"/>
<path d="M17.2731 4.18585C16.9063 4.18585 16.609 3.92685 16.609 3.60733V2.0794C16.609 1.74163 16.2936 1.46684 15.9059 1.46684H14.152C13.7852 1.46684 13.4879 1.20784 13.4879 0.888327C13.4879 0.568814 13.7852 0.309814 14.152 0.309814H15.9059C17.026 0.309814 17.9372 1.10362 17.9372 2.0794V3.60733C17.9372 3.92685 17.6399 4.18585 17.2731 4.18585ZM15.628 3.25453C15.8813 3.02347 15.8716 2.65727 15.6064 2.43663C15.3412 2.21598 14.9208 2.2244 14.6675 2.45546C13.0559 3.92572 10.9154 4.73543 8.6403 4.73543H8.2478C7.88104 4.73543 7.58374 4.99443 7.58374 5.31395C7.58374 5.63346 7.88104 5.89246 8.2478 5.89246H8.6403C11.2817 5.89246 13.7634 4.95562 15.628 3.25453Z" fill="#F80D38"/>
</svg>
