<svg width="128" height="47" viewBox="0 0 128 47" fill="none" xmlns="http://www.w3.org/2000/svg">
<path d="M45.4444 29.6817C45.2867 29.6817 45.1527 29.6344 45.0423 29.5398C44.9477 29.4294 44.9004 29.2954 44.9004 29.1377V13.6703C44.9004 13.5126 44.9477 13.3865 45.0423 13.2919C45.1527 13.1815 45.2867 13.1263 45.4444 13.1263H46.6978C46.8555 13.1263 46.9816 13.1815 47.0762 13.2919C47.1866 13.3865 47.2418 13.5126 47.2418 13.6703V29.1377C47.2418 29.2954 47.1866 29.4294 47.0762 29.5398C46.9816 29.6344 46.8555 29.6817 46.6978 29.6817H45.4444Z" fill="#12132A"/>
<path d="M54.3236 29.6817C54.1187 29.6817 53.961 29.6344 53.8506 29.5398C53.7403 29.4452 53.6457 29.2954 53.5668 29.0904L50.2084 18.1166L50.1611 17.8801C50.1611 17.7382 50.2084 17.6199 50.3031 17.5253C50.4134 17.4307 50.5317 17.3834 50.6578 17.3834H51.6984C51.8561 17.3834 51.9822 17.4307 52.0768 17.5253C52.1872 17.6042 52.2582 17.6909 52.2897 17.7855L54.9149 26.7017L57.7293 17.8801C57.7608 17.754 57.8318 17.6436 57.9422 17.549C58.0525 17.4386 58.2023 17.3834 58.3915 17.3834H59.1956C59.3848 17.3834 59.5346 17.4386 59.645 17.549C59.7554 17.6436 59.8263 17.754 59.8579 17.8801L62.6723 26.7017L65.2975 17.7855C65.3132 17.7067 65.3684 17.6199 65.463 17.5253C65.5734 17.4307 65.7074 17.3834 65.8651 17.3834H66.9293C67.0555 17.3834 67.1659 17.4307 67.2605 17.5253C67.3551 17.6199 67.4024 17.7382 67.4024 17.8801L67.3551 18.1166L64.0203 29.0904C63.9415 29.2954 63.8469 29.4452 63.7365 29.5398C63.6262 29.6344 63.4606 29.6817 63.2399 29.6817H62.3175C61.8918 29.6817 61.6316 29.4846 61.537 29.0904L58.7936 20.6235L56.0501 29.0904C55.924 29.4846 55.6559 29.6817 55.246 29.6817H54.3236Z" fill="#12132A"/>
<path d="M74.736 29.9182C73.0017 29.9182 71.6536 29.4294 70.6918 28.4519C69.7458 27.4743 69.2412 26.1735 69.1782 24.5495L69.1545 23.5326L69.1782 22.5156C69.2412 20.9074 69.7537 19.6145 70.7155 18.6369C71.6772 17.6436 73.0174 17.1469 74.736 17.1469C76.4546 17.1469 77.7948 17.6436 78.7566 18.6369C79.7184 19.6145 80.2308 20.9074 80.2939 22.5156C80.3097 22.689 80.3176 23.028 80.3176 23.5326C80.3176 24.0371 80.3097 24.3761 80.2939 24.5495C80.2308 26.1735 79.7184 27.4743 78.7566 28.4519C77.8106 29.4294 76.4704 29.9182 74.736 29.9182ZM74.736 28.0971C75.7294 28.0971 76.5098 27.7818 77.0774 27.1511C77.6608 26.5204 77.9762 25.6138 78.0235 24.4313C78.0392 24.2736 78.0471 23.974 78.0471 23.5326C78.0471 23.0911 78.0392 22.7915 78.0235 22.6338C77.9762 21.4513 77.6608 20.5447 77.0774 19.914C76.5098 19.2834 75.7294 18.968 74.736 18.968C73.7427 18.968 72.9544 19.2834 72.371 19.914C71.7876 20.5447 71.4802 21.4513 71.4486 22.6338L71.425 23.5326L71.4486 24.4313C71.4802 25.6138 71.7876 26.5204 72.371 27.1511C72.9544 27.7818 73.7427 28.0971 74.736 28.0971Z" fill="#12132A"/>
<path d="M87.5361 29.9182C86.4324 29.9182 85.5022 29.7448 84.7454 29.3979C84.0043 29.0352 83.4446 28.6253 83.0662 28.1681C82.7035 27.7108 82.5222 27.3324 82.5222 27.0328C82.5222 26.8752 82.5774 26.7569 82.6878 26.6781C82.8139 26.5835 82.9401 26.5362 83.0662 26.5362H84.1305C84.2881 26.5362 84.43 26.615 84.5562 26.7727C84.9346 27.2142 85.3445 27.561 85.786 27.8133C86.2275 28.0656 86.8187 28.1917 87.5598 28.1917C88.3797 28.1917 89.0419 28.034 89.5464 27.7187C90.0667 27.3876 90.3269 26.9382 90.3269 26.3706C90.3269 25.9922 90.2165 25.6848 89.9958 25.4483C89.7908 25.196 89.4282 24.9831 88.9079 24.8097C88.4033 24.6205 87.6465 24.4155 86.6374 24.1948C85.2657 23.8952 84.2881 23.4616 83.7048 22.894C83.1371 22.3264 82.8533 21.5932 82.8533 20.6945C82.8533 20.0954 83.0268 19.5277 83.3736 18.9917C83.7363 18.4398 84.2566 17.9983 84.9346 17.6672C85.6283 17.3204 86.4561 17.1469 87.4179 17.1469C88.427 17.1469 89.2863 17.3125 89.9958 17.6436C90.7053 17.9747 91.2335 18.3689 91.5804 18.8261C91.943 19.2676 92.1243 19.6381 92.1243 19.9377C92.1243 20.0796 92.0691 20.1978 91.9588 20.2924C91.8642 20.387 91.7459 20.4343 91.604 20.4343H90.6107C90.4215 20.4343 90.2638 20.3555 90.1377 20.1978C89.8854 19.8983 89.6647 19.6696 89.4755 19.512C89.302 19.3385 89.0419 19.1888 88.695 19.0626C88.3639 18.9365 87.9382 18.8734 87.4179 18.8734C86.6611 18.8734 86.0777 19.039 85.6677 19.3701C85.2578 19.6854 85.0528 20.1032 85.0528 20.6235C85.0528 20.9547 85.1395 21.2385 85.313 21.475C85.4864 21.6957 85.8175 21.9007 86.3063 22.0899C86.8109 22.2791 87.5361 22.4762 88.4822 22.6811C89.98 22.9965 91.0364 23.4537 91.6513 24.0529C92.282 24.6363 92.5973 25.3852 92.5973 26.2997C92.5973 26.9777 92.4003 27.5926 92.0061 28.1444C91.6119 28.6963 91.0285 29.1298 90.2559 29.4452C89.4991 29.7605 88.5925 29.9182 87.5361 29.9182Z" fill="#12132A"/>
<path d="M98.7646 29.9182C97.992 29.9182 97.2746 29.7605 96.6124 29.4452C95.9502 29.1298 95.422 28.7041 95.0278 28.1681C94.6494 27.6162 94.4602 27.0092 94.4602 26.347C94.4602 25.3063 94.8859 24.4549 95.7373 23.7927C96.6045 23.1147 97.7713 22.6733 99.2376 22.4683L102.762 21.9716V21.2858C102.762 19.6775 101.839 18.8734 99.9944 18.8734C99.3007 18.8734 98.733 19.0232 98.2916 19.3228C97.8501 19.6066 97.519 19.9456 97.2982 20.3397C97.2509 20.4816 97.1879 20.5841 97.109 20.6472C97.046 20.7103 96.9514 20.7418 96.8252 20.7418H95.8083C95.6664 20.7418 95.5402 20.6945 95.4299 20.5999C95.3353 20.4895 95.288 20.3634 95.288 20.2215C95.3037 19.8431 95.4772 19.4174 95.8083 18.9444C96.1551 18.4556 96.6833 18.0378 97.3928 17.6909C98.1024 17.3282 98.9774 17.1469 100.018 17.1469C101.784 17.1469 103.053 17.5648 103.826 18.4004C104.598 19.2203 104.985 20.2451 104.985 21.475V29.1377C104.985 29.2954 104.929 29.4294 104.819 29.5398C104.725 29.6344 104.598 29.6817 104.441 29.6817H103.353C103.195 29.6817 103.061 29.6344 102.951 29.5398C102.856 29.4294 102.809 29.2954 102.809 29.1377V28.1208C102.462 28.6253 101.957 29.051 101.295 29.3979C100.633 29.7448 99.7894 29.9182 98.7646 29.9182ZM99.2612 28.1444C100.286 28.1444 101.122 27.8133 101.768 27.1511C102.43 26.4731 102.762 25.5034 102.762 24.2421V23.5799L100.018 23.9819C98.8986 24.1396 98.0551 24.4076 97.4874 24.786C96.9198 25.1487 96.636 25.6138 96.636 26.1814C96.636 26.8121 96.8962 27.3009 97.4165 27.6477C97.9368 27.9789 98.5517 28.1444 99.2612 28.1444Z" fill="#12132A"/>
<path d="M108.929 29.6817C108.771 29.6817 108.637 29.6344 108.527 29.5398C108.432 29.4294 108.385 29.2954 108.385 29.1377V17.9274C108.385 17.7697 108.432 17.6436 108.527 17.549C108.637 17.4386 108.771 17.3834 108.929 17.3834H110.04C110.198 17.3834 110.324 17.4386 110.419 17.549C110.529 17.6436 110.584 17.7697 110.584 17.9274V18.968C111.041 18.3846 111.577 17.9353 112.192 17.6199C112.823 17.3046 113.603 17.1469 114.534 17.1469C116.047 17.1469 117.222 17.6357 118.058 18.6133C118.909 19.575 119.335 20.8601 119.335 22.4683V29.1377C119.335 29.2954 119.28 29.4294 119.169 29.5398C119.075 29.6344 118.948 29.6817 118.791 29.6817H117.608C117.451 29.6817 117.317 29.6344 117.206 29.5398C117.112 29.4294 117.064 29.2954 117.064 29.1377V22.5865C117.064 21.4671 116.788 20.5999 116.237 19.985C115.7 19.3701 114.92 19.0626 113.895 19.0626C112.902 19.0626 112.113 19.378 111.53 20.0086C110.947 20.6236 110.655 21.4829 110.655 22.5865V29.1377C110.655 29.2954 110.6 29.4294 110.489 29.5398C110.395 29.6344 110.269 29.6817 110.111 29.6817H108.929Z" fill="#12132A"/>
<path d="M120.97 15.6125C120.933 15.6125 120.9 15.5995 120.87 15.5735C120.844 15.5438 120.831 15.5105 120.831 15.4734V12.5908H119.841C119.803 12.5908 119.77 12.5778 119.74 12.5518C119.714 12.5221 119.701 12.4888 119.701 12.4517V11.8562C119.701 11.8154 119.714 11.782 119.74 11.7561C119.77 11.7301 119.803 11.7171 119.841 11.7171H122.834C122.875 11.7171 122.909 11.7301 122.935 11.7561C122.961 11.782 122.974 11.8154 122.974 11.8562V12.4517C122.974 12.4925 122.961 12.5259 122.935 12.5518C122.909 12.5778 122.875 12.5908 122.834 12.5908H121.844V15.4734C121.844 15.5105 121.831 15.5438 121.805 15.5735C121.779 15.5995 121.746 15.6125 121.705 15.6125H120.97Z" fill="#12132A"/>
<path d="M123.618 15.6125C123.581 15.6125 123.548 15.5995 123.518 15.5735C123.492 15.5438 123.479 15.5105 123.479 15.4734V11.8562C123.479 11.8154 123.492 11.782 123.518 11.7561C123.548 11.7301 123.581 11.7171 123.618 11.7171H124.219C124.308 11.7171 124.373 11.7579 124.414 11.8395L125.394 13.5924L126.373 11.8395C126.414 11.7579 126.479 11.7171 126.568 11.7171H127.163C127.204 11.7171 127.237 11.7301 127.263 11.7561C127.293 11.782 127.308 11.8154 127.308 11.8562V15.4734C127.308 15.5142 127.293 15.5476 127.263 15.5735C127.237 15.5995 127.204 15.6125 127.163 15.6125H126.501C126.46 15.6125 126.425 15.5995 126.395 15.5735C126.369 15.5476 126.356 15.5142 126.356 15.4734V13.3865L125.733 14.5496C125.685 14.6349 125.62 14.6776 125.538 14.6776H125.249C125.201 14.6776 125.162 14.6665 125.132 14.6442C125.102 14.6219 125.076 14.5904 125.054 14.5496L124.425 13.3865V15.4734C124.425 15.5105 124.412 15.5438 124.386 15.5735C124.36 15.5995 124.327 15.6125 124.286 15.6125H123.618Z" fill="#12132A"/>
<path d="M2.08228 7.9682C8.18281 7.9682 14.1269 5.93476 18.8196 2.18059L19.2889 1.71124L19.7582 2.18059C24.4509 5.93476 30.395 7.9682 36.4955 7.9682C34.462 14.2252 33.3671 18.9179 33.3671 22.0464C33.3671 25.1748 34.462 26.7391 36.4955 26.7391V31.4318C25.0766 40.8172 19.2889 45.5099 19.2889 45.5099C19.2889 45.5099 13.5012 40.8172 2.08228 31.4318V26.7391C4.11579 25.4877 5.21075 23.9234 5.21075 22.0464C5.21075 17.6665 4.11579 12.9738 2.08228 7.9682Z" fill="url(#paint0_linear_15_356)"/>
<path fill-rule="evenodd" clip-rule="evenodd" d="M19.2888 0.58786C19.5868 0.58786 19.8725 0.706244 20.0832 0.916963L20.508 1.34179C24.9875 4.90689 30.6624 6.84482 36.4954 6.84482C36.8551 6.84482 37.1929 7.01699 37.4043 7.30794C37.6157 7.59889 37.675 7.97345 37.5638 8.31547C35.5306 14.5716 34.4904 19.1134 34.4904 22.0464C34.4904 23.5118 34.7525 24.4229 35.0998 24.9374C35.3981 25.3793 35.8133 25.6157 36.4954 25.6157C37.1159 25.6157 37.6189 26.1187 37.6189 26.7391V31.4318C37.6189 31.7679 37.4684 32.0863 37.2088 32.2997C31.4983 36.9932 27.1957 40.5136 24.3204 42.8607C22.8828 44.0343 21.802 44.9146 21.0805 45.5015C20.7198 45.795 20.4488 46.0152 20.268 46.162L19.9974 46.3817L19.9964 46.3825L19.2888 45.51L18.5812 46.3825L18.5802 46.3817L18.3096 46.162C18.1288 46.0152 17.8578 45.795 17.4971 45.5015C16.7756 44.9146 15.6948 44.0343 14.2572 42.8607C11.3819 40.5136 7.07928 36.9932 1.36883 32.2997C1.1092 32.0863 0.958745 31.7679 0.958745 31.4318V26.7391C0.958745 26.349 1.16114 25.9868 1.49338 25.7823C3.32678 24.6541 4.08722 23.4 4.08722 22.0464C4.08722 17.8516 3.03779 13.3054 1.04135 8.39107C0.900647 8.04471 0.941452 7.65105 1.15021 7.34092C1.35896 7.03079 1.70832 6.84482 2.08217 6.84482C7.9152 6.84482 13.5901 4.90689 18.0696 1.34178L18.4944 0.916963C18.705 0.706244 18.9908 0.58786 19.2888 0.58786ZM19.2888 3.24178C14.8504 6.71218 9.38071 8.72201 3.70807 9.04536C5.40736 13.5938 6.33407 17.9315 6.33407 22.0464C6.33407 24.2495 5.13013 26.0094 3.20559 27.3464V30.901C8.71037 35.4247 12.8739 38.8311 15.678 41.1202C17.1147 42.293 18.1945 43.1725 18.915 43.7586C19.0527 43.8707 19.1773 43.972 19.2888 44.0626C19.4002 43.972 19.5248 43.8707 19.6626 43.7586C20.3831 43.1725 21.4629 42.293 22.8996 41.1202C25.7037 38.8311 29.8672 35.4247 35.372 30.901V27.7232C34.5086 27.4962 33.7747 26.9903 33.2375 26.1945C32.5289 25.1447 32.2435 23.7094 32.2435 22.0464C32.2435 18.9801 33.2219 14.6207 34.9701 9.05091C29.2615 8.7457 23.7534 6.73268 19.2888 3.24178ZM19.2888 45.51L18.5812 46.3825C18.9936 46.7169 19.584 46.7169 19.9964 46.3825L19.2888 45.51Z" fill="#09075F"/>
<path d="M16.6682 12.8206H21.9269V20.8668H16.6682V12.8206Z" fill="white"/>
<path d="M8.62207 26.1256L8.62207 20.8669L16.6682 20.8669L16.6682 26.1256L8.62207 26.1256Z" fill="#F80D38"/>
<path d="M29.9556 26.0764L29.9556 20.8177L21.9094 20.8177L21.9094 26.0764L29.9556 26.0764Z" fill="#F80D38"/>
<path d="M21.9268 34.4006L16.6681 34.4006L16.6681 26.1256L21.9268 26.1256L21.9268 34.4006Z" fill="white"/>
<defs>
<linearGradient id="paint0_linear_15_356" x1="19.2889" y1="1.71124" x2="19.2889" y2="45.5099" gradientUnits="userSpaceOnUse">
<stop stop-color="#100DB4"/>
<stop offset="1" stop-color="#070641"/>
</linearGradient>
</defs>
</svg>
