<svg width="16" height="16" viewBox="0 0 16 16" fill="none" xmlns="http://www.w3.org/2000/svg">
<path d="M4.5575 8.91895C4.5575 9.24256 4.81982 9.50488 5.14343 9.50488H10.7977C11.1213 9.50488 11.3837 9.24256 11.3837 8.91895C11.3837 8.59533 11.1213 8.33301 10.7977 8.33301H5.14343C4.81982 8.33301 4.5575 8.59533 4.5575 8.91895Z" fill="#100DB1"/>
<path d="M13.9301 9.01844L13.7364 7.63642C13.6915 7.31597 13.3954 7.09249 13.0748 7.13749C12.7543 7.1824 12.531 7.47862 12.5759 7.7991L12.8387 9.6741C12.8792 9.96344 13.1268 10.1787 13.419 10.1787H13.7274C14.0505 10.1787 14.3134 10.4416 14.3134 10.7646C14.3134 11.0877 14.0505 11.3506 13.7274 11.3506H2.24304C1.91996 11.3506 1.6571 11.0877 1.6571 10.7646C1.6571 10.4416 1.91996 10.1787 2.24304 10.1787H2.55148C2.84366 10.1787 3.09119 9.96347 3.13173 9.6741L3.76255 5.1739C3.9325 3.96159 4.60091 2.88745 5.59642 2.22695C6.30652 1.75586 7.13562 1.50684 8.04382 1.50684C8.61415 1.51861 9.17676 1.63094 9.6538 1.83889C9.95046 1.96817 10.2958 1.83253 10.4251 1.5359C10.5544 1.23927 10.4187 0.893945 10.1221 0.764629C9.5041 0.495273 8.83484 0.334961 8.04382 0.334961C6.95993 0.334961 5.85127 0.651543 4.94858 1.25046C3.67378 2.09626 2.81852 3.467 2.60208 5.01124L2.04034 9.01847C1.16624 9.11931 0.485229 9.86395 0.485229 10.7646C0.485229 11.7339 1.27378 12.5225 2.24304 12.5225H13.7274C14.6967 12.5225 15.4852 11.7339 15.4852 10.7646C15.4852 9.86395 14.8042 9.11931 13.9301 9.01844Z" fill="#100DB1"/>
<path d="M8.01443 15.335C7.12155 15.335 6.37105 14.6713 6.26875 13.7913C6.23137 13.4699 6.46164 13.179 6.78308 13.1416C7.10453 13.1041 7.39539 13.3345 7.43277 13.656C7.46638 13.9451 7.71645 14.1631 8.01443 14.1631C8.31241 14.1631 8.56249 13.9451 8.59609 13.656C8.63348 13.3345 8.92454 13.1043 9.24578 13.1416C9.56723 13.179 9.7975 13.4699 9.76012 13.7913C9.65781 14.6713 8.90731 15.335 8.01443 15.335ZM14.8992 2.67871H13.1414V0.920898C13.1414 0.597285 12.8791 0.334961 12.5554 0.334961C12.2318 0.334961 11.9695 0.597285 11.9695 0.920898V2.67871H10.2117C9.88809 2.67871 9.62576 2.94104 9.62576 3.26465C9.62576 3.58826 9.88809 3.85059 10.2117 3.85059H11.9695V5.6084C11.9695 5.93201 12.2318 6.19434 12.5554 6.19434C12.8791 6.19434 13.1414 5.93201 13.1414 5.6084V3.85059H14.8992C15.2228 3.85059 15.4851 3.58826 15.4851 3.26465C15.4851 2.94104 15.2228 2.67871 14.8992 2.67871Z" fill="#F80D38"/>
</svg>
