<svg width="20" height="20" viewBox="0 0 20 20" fill="none" xmlns="http://www.w3.org/2000/svg">
<path d="M15.4841 19.451H5.39038C2.93493 19.451 0.937256 17.4534 0.937256 14.9979V4.90417C0.937256 2.44872 2.93493 0.45105 5.39038 0.45105H15.4841C17.9396 0.45105 19.9373 2.44872 19.9373 4.90417V14.9979C19.9373 17.4534 17.9396 19.451 15.4841 19.451ZM5.39038 1.93542C3.75341 1.93542 2.42163 3.26721 2.42163 4.90417V14.9979C2.42163 16.6349 3.75341 17.9667 5.39038 17.9667H15.4841C17.1211 17.9667 18.4529 16.6349 18.4529 14.9979V4.90417C18.4529 3.26721 17.1211 1.93542 15.4841 1.93542H5.39038ZM8.76733 4.1991C8.76733 3.78919 8.43506 3.45691 8.02515 3.45691H4.90796C4.49805 3.45691 4.16577 3.78919 4.16577 4.1991C4.16577 4.60901 4.49805 4.94128 4.90796 4.94128H8.02515C8.43506 4.94128 8.76733 4.60901 8.76733 4.1991ZM15.5583 12.8456C15.5583 12.4357 15.2261 12.1034 14.8162 12.1034H8.6189C8.20899 12.1034 7.87671 12.4357 7.87671 12.8456C7.87671 13.2555 8.20899 13.5878 8.6189 13.5878H14.8162C15.2261 13.5878 15.5583 13.2555 15.5583 12.8456ZM16.5603 15.7401C16.5603 15.3302 16.228 14.9979 15.8181 14.9979H14.1853C13.7754 14.9979 13.4431 15.3302 13.4431 15.7401C13.4431 16.15 13.7754 16.4823 14.1853 16.4823H15.8181C16.228 16.4823 16.5603 16.15 16.5603 15.7401Z" fill="#100DB1"/>
<path d="M15.9294 10.6932H10.697C10.2871 10.6932 9.95483 10.361 9.95483 9.95105C9.95483 9.54114 10.2871 9.20886 10.697 9.20886H15.9294C16.3394 9.20886 16.6716 9.54114 16.6716 9.95105C16.6716 10.361 16.3394 10.6932 15.9294 10.6932ZM14.074 7.09363C14.074 6.68372 13.7417 6.35144 13.3318 6.35144H6.39233C5.98242 6.35144 5.65015 6.68372 5.65015 7.09363C5.65015 7.50354 5.98242 7.83582 6.39233 7.83582H13.3318C13.7417 7.83582 14.074 7.50354 14.074 7.09363Z" fill="#F80D38"/>
</svg>
