<svg width="17" height="17" viewBox="0 0 17 17" fill="none" xmlns="http://www.w3.org/2000/svg">
<path d="M12.656 11.425C11.1913 11.425 9.99976 10.2335 9.99976 8.7688C9.99976 7.30414 11.1913 6.11255 12.656 6.11255C14.1207 6.11255 15.3123 7.30414 15.3123 8.7688C15.3123 10.2335 14.1207 11.425 12.656 11.425ZM12.656 7.36255C11.8806 7.36255 11.2498 7.99339 11.2498 8.7688C11.2498 9.5442 11.8806 10.175 12.656 10.175C13.4314 10.175 14.0623 9.5442 14.0623 8.7688C14.0623 7.99339 13.4314 7.36255 12.656 7.36255ZM7.68726 15.8625C7.68726 15.5174 7.40744 15.2375 7.06226 15.2375H4.1866C2.80847 15.2375 1.68726 14.1163 1.68726 12.7382V4.23689C1.68726 2.85877 2.80847 1.73755 4.1866 1.73755H9.93854C11.3167 1.73755 12.4379 2.85877 12.4379 4.23689C12.4379 4.58208 12.7177 4.86189 13.0629 4.86189C13.4081 4.86189 13.6879 4.58208 13.6879 4.23689C13.6879 2.16952 12.0059 0.487549 9.93791 0.487549H4.1866C2.11922 0.487549 0.437256 2.16952 0.437256 4.23689V12.7382C0.437256 14.8056 2.11922 16.4875 4.1866 16.4875H7.06226C7.40744 16.4875 7.68726 16.2077 7.68726 15.8625ZM8.71851 7.5813C8.71851 7.23611 8.43869 6.9563 8.09351 6.9563H5.03101C4.68582 6.9563 4.40601 7.23611 4.40601 7.5813C4.40601 7.92649 4.68582 8.2063 5.03101 8.2063H8.09351C8.43869 8.2063 8.71851 7.92649 8.71851 7.5813ZM8.71851 12.3625C8.71851 12.0174 8.43869 11.7375 8.09351 11.7375H5.03101C4.68582 11.7375 4.40601 12.0174 4.40601 12.3625C4.40601 12.7077 4.68582 12.9875 5.03101 12.9875H8.09351C8.43869 12.9875 8.71851 12.7077 8.71851 12.3625ZM8.71851 9.9563C8.71851 9.61111 8.43869 9.3313 8.09351 9.3313H5.03101C4.68582 9.3313 4.40601 9.61111 4.40601 9.9563C4.40601 10.3015 4.68582 10.5813 5.03101 10.5813H8.09351C8.43869 10.5813 8.71851 10.3015 8.71851 9.9563Z" fill="#100DB1"/>
<path d="M15.8123 16.4875C15.4671 16.4875 15.1873 16.2077 15.1873 15.8625C15.1873 14.6219 14.1846 13.6125 12.9521 13.6125H12.4224C11.1899 13.6125 10.1873 14.6219 10.1873 15.8625C10.1873 16.2077 9.90744 16.4875 9.56226 16.4875C9.21707 16.4875 8.93726 16.2077 8.93726 15.8625C8.93726 13.9326 10.5007 12.3625 12.4224 12.3625H12.9521C14.8738 12.3625 16.4373 13.9326 16.4373 15.8625C16.4373 16.2077 16.1574 16.4875 15.8123 16.4875ZM9.96851 5.17505C9.96851 4.82986 9.68869 4.55005 9.34351 4.55005H5.03101C4.68582 4.55005 4.40601 4.82986 4.40601 5.17505C4.40601 5.52024 4.68582 5.80005 5.03101 5.80005H9.34351C9.68869 5.80005 9.96851 5.52024 9.96851 5.17505Z" fill="#F80D38"/>
</svg>
