<svg width="16" height="15" viewBox="0 0 16 15" fill="none" xmlns="http://www.w3.org/2000/svg">
<path d="M7.1189 11.9182C3.71033 11.9182 0.937256 9.33198 0.937256 6.15307C0.937256 2.97416 3.71033 0.387939 7.1189 0.387939C10.5275 0.387939 13.3006 2.97416 13.3006 6.15307C13.3006 9.33198 10.5275 11.9182 7.1189 11.9182ZM7.1189 1.48085C4.3565 1.48085 2.10913 3.57679 2.10913 6.15307C2.10913 8.72934 4.3565 10.8253 7.1189 10.8253C9.88131 10.8253 12.1287 8.72934 12.1287 6.15307C12.1287 3.57679 9.88128 1.48085 7.1189 1.48085Z" fill="#100DB1"/>
<path d="M15.7658 14.2279C15.6514 14.3346 15.5015 14.3879 15.3515 14.3879C15.2015 14.3879 15.0516 14.3346 14.9372 14.2279L12.3151 11.7825C12.0863 11.5691 12.0863 11.2231 12.3151 11.0097C12.544 10.7963 12.9149 10.7963 13.1438 11.0097L15.7658 13.4551C15.9946 13.6685 15.9946 14.0145 15.7658 14.2279ZM9.91079 5.20619L9.52043 5.42461C9.59693 5.64751 9.63862 5.88481 9.63862 6.13107C9.63862 6.37733 9.59693 6.61463 9.52043 6.83753L9.91076 7.05595C10.1883 7.21123 10.2782 7.54689 10.1117 7.80567C10.0019 7.97643 9.80778 8.07105 9.60873 8.07105C9.50614 8.07105 9.40222 8.04592 9.30783 7.9931L8.91027 7.77064C8.5916 8.06848 8.18678 8.28576 7.73426 8.38794V8.86333C7.73426 9.16514 7.47194 9.40979 7.14832 9.40979C6.82471 9.40979 6.56238 9.16514 6.56238 8.86333V8.38794C6.09955 8.28341 5.68696 8.05813 5.36508 7.74979L4.93025 7.9931C4.83589 8.04592 4.73194 8.07105 4.62934 8.07105C4.43027 8.07105 4.23621 7.97643 4.12635 7.80567C3.95985 7.54689 4.04985 7.2112 4.32732 7.05595L4.76686 6.80999C4.69629 6.59512 4.65806 6.3672 4.65806 6.13107C4.65806 5.89495 4.69629 5.66702 4.76686 5.45215L4.32729 5.20619C4.04979 5.05092 3.95982 4.71525 4.12632 4.45645C4.29284 4.19765 4.65272 4.11374 4.93022 4.26902L5.36505 4.51233C5.68693 4.20396 6.09952 3.97871 6.56235 3.87417V3.39878C6.56235 3.09697 6.82468 2.85233 7.14829 2.85233C7.47191 2.85233 7.73423 3.09697 7.73423 3.39878V3.87417C8.18675 3.97636 8.59158 4.19363 8.91024 4.49148L9.30777 4.26902C9.5853 4.11374 9.94518 4.19768 10.1117 4.45645C10.2783 4.71525 10.1883 5.05092 9.91079 5.20619ZM8.46674 6.13107C8.46674 5.45311 7.87532 4.90154 7.14838 4.90154C6.42144 4.90154 5.83002 5.45311 5.83002 6.13107C5.83002 6.80904 6.42144 7.3606 7.14838 7.3606C7.87532 7.3606 8.46674 6.80904 8.46674 6.13107Z" fill="#F80D38"/>
</svg>
