<svg width="88" height="111" viewBox="0 0 88 111" fill="none" xmlns="http://www.w3.org/2000/svg">
<path d="M2.78235 18.4756C17.3059 18.4756 31.4571 13.6346 42.6291 4.69697L43.7463 3.57959L44.8635 4.69697C56.0355 13.6346 70.1867 18.4756 84.7103 18.4756C79.8691 33.3716 77.2623 44.5436 77.2623 51.9916C77.2623 59.4396 79.8691 63.1636 84.7103 63.1636V74.3356C57.5251 96.6796 43.7463 107.852 43.7463 107.852C43.7463 107.852 29.9675 96.6796 2.78235 74.3356V63.1636C7.62355 60.1844 10.2303 56.4604 10.2303 51.9916C10.2303 41.5644 7.62355 30.3924 2.78235 18.4756Z" fill="url(#paint0_linear_46_860)"/>
<path fill-rule="evenodd" clip-rule="evenodd" d="M43.7462 0.905273C44.4556 0.905273 45.136 1.18711 45.6375 1.68877L46.6488 2.70015C57.3132 11.1876 70.8234 15.8013 84.7102 15.8013C85.5664 15.8013 86.3708 16.2112 86.874 16.9038C87.3772 17.5965 87.5184 18.4882 87.2538 19.3025C82.4132 34.1964 79.9367 45.0092 79.9367 51.9918C79.9367 55.4805 80.5608 57.6497 81.3875 58.8745C82.0977 59.9265 83.0862 60.4893 84.7102 60.4893C86.1873 60.4893 87.3847 61.6867 87.3847 63.1638V74.3358C87.3847 75.1359 87.0266 75.894 86.4084 76.402C72.8135 87.5759 62.5702 95.9568 55.7251 101.545C52.3025 104.339 49.7295 106.434 48.0118 107.832C47.1529 108.53 46.5079 109.055 46.0775 109.404L45.4333 109.927L45.4308 109.929L43.7462 107.852L42.0616 109.929L42.0592 109.927L41.4149 109.404C40.9845 109.055 40.3395 108.53 39.4806 107.832C37.763 106.434 35.1899 104.339 31.7673 101.545C24.9222 95.9568 14.6789 87.5759 1.08398 76.402C0.465875 75.894 0.107678 75.1359 0.107678 74.3358V63.1638C0.107678 62.235 0.58951 61.3728 1.3805 60.886C5.74527 58.2 7.55568 55.2143 7.55568 51.9918C7.55568 42.0053 5.05727 31.182 0.304346 19.4824C-0.0306377 18.6579 0.0665076 17.7207 0.563496 16.9823C1.06048 16.244 1.8922 15.8013 2.78222 15.8013C16.669 15.8013 30.1792 11.1876 40.8437 2.70014L41.8549 1.68877C42.3565 1.18711 43.0368 0.905273 43.7462 0.905273ZM43.7462 7.22348C33.1797 15.4855 20.1579 20.2703 6.65302 21.0401C10.6985 31.8685 12.9048 42.1954 12.9048 51.9918C12.9048 57.2367 10.0385 61.4265 5.45676 64.6097V73.072C18.5621 83.8417 28.4742 91.9513 35.15 97.4009C38.5703 100.193 41.141 102.287 42.8564 103.682C43.1842 103.949 43.4809 104.19 43.7462 104.406C44.0115 104.19 44.3082 103.949 44.636 103.682C46.3514 102.287 48.9222 100.193 52.3424 97.4009C59.0182 91.9513 68.9304 83.8417 82.0357 73.072V65.5066C79.9802 64.9662 78.2328 63.7617 76.954 61.8671C75.267 59.3679 74.5877 55.9511 74.5877 51.9918C74.5877 44.6919 76.9168 34.3134 81.0787 21.0533C67.4884 20.3267 54.3751 15.5343 43.7462 7.22348ZM43.7462 107.852L42.0616 109.929C43.0435 110.725 44.449 110.725 45.4308 109.929L43.7462 107.852Z" fill="#09075F"/>
<path d="M37.5071 30.0278H50.0264V49.1833H37.5071V30.0278Z" fill="white"/>
<path d="M18.3519 61.7031L18.3519 49.1838L37.5074 49.1838L37.5074 61.7031L18.3519 61.7031Z" fill="#F80D38"/>
<path d="M69.1406 61.5859L69.1406 49.0666L49.9851 49.0666L49.9851 61.5859L69.1406 61.5859Z" fill="#F80D38"/>
<path d="M50.0265 81.4033L37.5071 81.4033L37.5071 61.7029L50.0265 61.7029L50.0265 81.4033Z" fill="white"/>
<defs>
<linearGradient id="paint0_linear_46_860" x1="43.7463" y1="3.57959" x2="43.7463" y2="107.852" gradientUnits="userSpaceOnUse">
<stop stop-color="#100DB4"/>
<stop offset="1" stop-color="#070641"/>
</linearGradient>
</defs>
</svg>
